<svg width="877" height="216" viewBox="0 0 877 216" fill="none" xmlns="http://www.w3.org/2000/svg">
<g id="undraw_drone_surveillance_kjjg 1" clip-path="url(#clip0)">
<g id="right_fan">
<path id="Vector" d="M656.946 19.9407L456.092 4.4337L616.332 31.7557L654.731 25.1097L656.946 19.9407Z" fill="#000001"/>
<path id="Vector_2" d="M674.669 19.9407L875.523 4.4337L715.283 31.7557L676.884 25.1097L674.669 19.9407Z" fill="#000001"/>
<path id="Vector_3" d="M617.809 29.3247L656.208 22.6787L656.585 21.7987L658.423 21.9407L656.208 27.1097L617.809 33.7557L457.569 4.4337L505.056 10.0997L617.809 29.3247Z" fill="#43DDE6"/>
<path id="Vector_4" d="M716.76 29.3247L678.361 22.6787L677.984 21.7987L676.146 21.9407L678.361 27.1097L716.76 33.7557L877 4.4337L829.513 10.0997L716.76 29.3247Z" fill="#43DDE6"/>
</g>
<g id="left_fan">
<path id="Vector_5" d="M219.792 19.9407L420.647 4.4337L260.406 31.7557L222.008 25.1097L219.792 19.9407Z" fill="#000001"/>
<path id="Vector_6" d="M262.622 29.3247L224.223 22.6787L223.846 21.7987L222.008 21.9407L224.223 27.1097L262.622 33.7557L422.862 4.4337L375.375 10.0997L262.622 29.3247Z" fill="#43DDE6"/>
<path id="Vector_7" d="M202.07 19.9407L1.21497 4.4337L161.456 31.7557L199.855 25.1097L202.07 19.9407Z" fill="#000001"/>
<path id="Vector_8" d="M159.241 29.3247L197.639 22.6787L198.017 21.7987L199.855 21.9407L197.639 27.1097L159.241 33.7557L-1 4.4337L46.487 10.0997L159.241 29.3247Z" fill="#43DDE6"/>
</g>
<g id="drone">
<path id="Vector_9" d="M316.691 142.294C315.664 142.294 314.68 142.48 313.954 142.811C313.228 143.142 312.82 143.59 312.819 144.058V214.529C312.82 214.997 313.228 215.446 313.954 215.776C314.68 216.107 315.664 216.293 316.691 216.294H342.947C343.974 216.293 344.958 216.107 345.684 215.776C346.41 215.446 346.818 214.997 346.819 214.529V144.058C346.818 143.59 346.41 143.142 345.684 142.811C344.958 142.48 343.974 142.294 342.947 142.294H316.691Z" fill="#000001"/>
<path id="Vector_10" d="M534.691 142.294C533.665 142.294 532.68 142.48 531.955 142.811C531.229 143.142 530.82 143.59 530.819 144.058V214.529C530.82 214.997 531.229 215.446 531.955 215.776C532.68 216.107 533.665 216.293 534.691 216.294H560.947C561.973 216.293 562.958 216.107 563.683 215.776C564.409 215.446 564.818 214.997 564.819 214.529V144.058C564.818 143.59 564.409 143.142 563.683 142.811C562.958 142.48 561.973 142.294 560.947 142.294H534.691Z" fill="#000001"/>
<path id="Vector_11" d="M690.914 100.43L673.93 101.169L518.334 166.815L509.429 174.274L481.199 197.904H392.586L365.899 174.274L355.753 165.287L206.5 101.907L193.209 100.43L237.515 79.0155H237.751C247.794 69.4823 334.767 62.0315 440.585 62.0315C546.402 62.0315 633.375 69.4823 643.418 79.0155H644.393L690.914 100.43Z" fill="#000001"/>
<path id="Vector_12" d="M236.298 80.1102C236.613 79.2248 236.775 78.2923 236.776 77.3525V42.2798C236.776 40.0761 235.901 37.9627 234.343 36.4045C232.785 34.8463 230.671 33.971 228.468 33.9709H225.094C227.864 31.1754 229.745 27.6225 230.499 23.76C231.253 19.8975 230.848 15.8981 229.334 12.2656C227.819 8.63316 225.264 5.53013 221.989 3.34744C218.714 1.16476 214.867 6.10352e-05 210.931 6.10352e-05C206.996 6.10352e-05 203.148 1.16476 199.873 3.34744C196.599 5.53013 194.043 8.63316 192.529 12.2656C191.014 15.8981 190.609 19.8975 191.363 23.76C192.118 27.6225 193.998 31.1754 196.768 33.9709H193.395C192.304 33.9709 191.223 34.1858 190.215 34.6034C189.207 35.021 188.291 35.633 187.519 36.4045C186.748 37.1761 186.136 38.092 185.718 39.1001C185.301 40.1082 185.086 41.1886 185.086 42.2798V77.3525C185.085 78.7887 185.459 80.2001 186.171 81.4477C183.663 81.8874 181.155 82.3648 178.647 82.9163C177.12 83.2579 175.754 84.1104 174.777 85.333C173.799 86.5557 173.268 88.0752 173.271 89.6405V97.9735C173.271 99.8001 173.996 101.552 175.288 102.844C176.58 104.135 178.331 104.861 180.158 104.861H258.191V84.1846C250.986 82.3699 243.674 81.0091 236.298 80.1102Z" fill="#000001"/>
<path id="Vector_13" d="M698.091 82.9163C695.584 82.3648 693.076 81.8874 690.568 81.4477C691.279 80.2001 691.653 78.7887 691.653 77.3525V42.2798C691.653 41.1886 691.438 40.1082 691.02 39.1001C690.603 38.092 689.991 37.1761 689.219 36.4045C688.448 35.633 687.532 35.021 686.524 34.6034C685.515 34.1858 684.435 33.9709 683.344 33.9709H679.97C682.74 31.1754 684.621 27.6225 685.375 23.76C686.13 19.8975 685.724 15.8981 684.21 12.2656C682.696 8.63313 680.14 5.53007 676.865 3.34738C673.59 1.16469 669.743 0 665.807 0C661.872 0 658.024 1.16469 654.75 3.34738C651.475 5.53007 648.919 8.63313 647.405 12.2656C645.891 15.8981 645.485 19.8975 646.24 23.76C646.994 27.6225 648.875 31.1754 651.645 33.9709H648.271C647.18 33.9709 646.1 34.1858 645.091 34.6034C644.083 35.021 643.167 35.633 642.396 36.4045C641.624 37.1761 641.012 38.092 640.595 39.1001C640.177 40.1082 639.962 41.1886 639.962 42.2798V77.3525C639.964 78.2923 640.126 79.2248 640.441 80.1102C633.065 81.0091 625.753 82.3699 618.548 84.1846V104.861H696.58C698.407 104.861 700.159 104.135 701.45 102.844C702.742 101.552 703.468 99.8001 703.468 97.9735V89.6405C703.471 88.0752 702.939 86.5557 701.962 85.333C700.984 84.1104 699.619 83.2579 698.091 82.9163Z" fill="#000001"/>
<path id="Vector_14" d="M509.429 174.274L481.199 197.904H392.586L365.899 174.274H392.439L393.598 168.492C393.938 166.791 394.856 165.261 396.197 164.161C397.538 163.061 399.218 162.459 400.953 162.459H475.047C476.782 162.459 478.462 163.061 479.803 164.161C481.144 165.261 482.062 166.791 482.402 168.492L483.562 174.274H509.429Z" fill="#43DDE6"/>
<path id="Vector_15" d="M703.836 91.7241H173.64V95.1062H703.836V91.7241Z" fill="#F0F0F0"/>
<path id="Vector_16" d="M467.538 168.735H408.463V180.55H467.538V168.735Z" fill="#F0F0F0"/>
</g>
</g>
<defs>
<clipPath id="clip0">
<rect width="877" height="216" fill="white"/>
</clipPath>
</defs>
</svg>
